<?xml version="1.0"?>
<svg height="36px" version="1.1" viewBox="0 0 60 60" width="36px" xmlns="http://www.w3.org/2000/svg"
    xmlns:xlink="http://www.w3.org/1999/xlink">
    <title />
    <desc />
    <defs />
    <g fill="none" fill-rule="evenodd" id="Page-1" stroke="currentColor" stroke-width="1">
        <g id="Google" stroke="currentColor" stroke-width="2" transform="translate(1.000000, 1.000000)">
            <path
                d="M7.9935,39.2385 C8.8935,41.0735 10.0255,42.7675 11.3505,44.2895 C15.6985,49.2995 22.1195,52.4595 29.3195,52.4595 C31.4935,52.4595 33.6365,52.1665 35.6795,51.6005 C39.0775,50.6595 42.2065,48.9505 44.8005,46.5445 C46.8835,44.6125 48.6125,42.2215 49.8565,39.4155 C51.2165,36.3465 51.9995,32.7725 51.9995,28.7325 C51.9995,27.3265 51.7825,25.8205 51.4585,24.4145 L50.0335,24.4145 L29.3195,24.4145 L29.3195,28.0805 L29.3195,29.3795 L29.3195,33.5865 L42.0605,33.5865 C41.4235,36.7105 39.6885,39.1125 37.2065,40.6745 C35.0675,42.0245 32.3675,42.7525 29.3195,42.7525 C27.5295,42.7525 25.8305,42.4135 24.2635,41.8065 C23.1055,41.3615 22.0285,40.7705 21.0425,40.0525 C18.7065,38.3485 16.9125,35.9425 15.9865,33.1365 L7.9935,39.2385 L7.9935,39.2385 Z"
                id="Stroke-94" />
            <path
                d="M15.9819,33.1158 C15.5929,31.9328 15.3649,30.6788 15.3049,29.3798 C15.2939,29.1618 15.2739,28.9498 15.2739,28.7328 C15.2739,28.5098 15.2939,28.2978 15.3049,28.0798 C15.3649,26.7708 15.5979,25.5118 15.9869,24.3238 C16.9119,21.5128 18.7019,19.1008 21.0429,17.3918 C23.3589,15.7038 26.2149,14.7078 29.3189,14.7078 C32.6659,14.7078 35.6899,15.8958 38.0659,17.8368 L44.9779,10.9358 C40.7659,7.2648 35.3659,4.9998 29.3189,4.9998 C22.1199,4.9998 15.7039,8.1548 11.3559,13.1598 C10.0309,14.6868 8.8939,16.3858 7.9939,18.2158 C6.5219,21.1988 5.6679,24.5408 5.5719,28.0798 C5.5669,28.2978 5.5569,28.5098 5.5569,28.7328 C5.5569,28.9498 5.5669,29.1618 5.5719,29.3798 C5.6679,32.9188 6.5219,36.2558 7.9889,39.2338 L15.9819,33.1158 L15.9819,33.1158 Z"
                id="Stroke-95" />
            <path
                d="M21.0428,17.392 C18.7018,19.101 16.9118,21.513 15.9868,24.324 L7.9938,18.216 C8.8938,16.386 10.0308,14.687 11.3558,13.16 C15.7038,8.155 22.1198,5 29.3188,5 C35.3658,5 40.7658,7.265 44.9778,10.936"
                id="Stroke-96" />
            <path
                d="M11.3507,44.2893 C10.0257,42.7673 8.8937,41.0733 7.9937,39.2383 L15.9867,33.1363 C16.9117,35.9423 18.7067,38.3483 21.0427,40.0523 C22.0287,40.7703 23.1057,41.3623 24.2637,41.8073"
                id="Stroke-97" />
            <path
                d="M29.3193,42.7523 C32.3683,42.7523 35.0683,42.0243 37.2063,40.6743 L44.8003,46.5443 C42.2063,48.9513 39.0773,50.6593 35.6793,51.6003 C33.6373,52.1663 31.4933,52.4593 29.3193,52.4593"
                id="Stroke-98" />
            <path
                d="M54,58 L4,58 C1.791,58 0,56.209 0,54 L0,4 C0,1.791 1.791,0 4,0 L54,0 C56.209,0 58,1.791 58,4 L58,54 C58,56.209 56.209,58 54,58 L54,58 Z"
                id="Stroke-153" stroke-linejoin="round" />
        </g>
    </g>
</svg>